<svg xmlns="http://www.w3.org/2000/svg" xmlns:cc="http://web.resource.org/cc/" xmlns:svg="http://www.w3.org/2000/svg" xmlns:xlink="http://www.w3.org/1999/xlink" id="svg2" width="128" height="128" enable-background="new 0 0 128 128" overflow="visible" viewBox="0 0 128 128" xml:space="preserve"><metadata id="metadata134"/><defs id="defs132"><linearGradient id="linearGradient2696" x1="62.388" x2="62.388" y1="74.371" y2="36.49" gradientUnits="userSpaceOnUse"><stop offset="0" style="stop-color:#ffac2d" id="stop2698"/><stop offset="1" style="stop-color:#854a00;stop-opacity:1" id="stop2700"/></linearGradient><linearGradient id="XMLID_4_" x1="-3.728" x2="127.593" y1="10.651" y2="10.651" gradientUnits="userSpaceOnUse"><stop offset="0" style="stop-color:#b3caff" id="stop39"/><stop offset="1" style="stop-color:#0053bd" id="stop41"/></linearGradient><linearGradient id="XMLID_1_" x1="63.92" x2="63.92" y1="154.565" y2="-100.935" gradientUnits="userSpaceOnUse"><stop id="stop12" style="stop-color:#fff" offset="0"/><stop id="stop14" style="stop-color:#f6f6f6" offset=".246"/><stop id="stop16" style="stop-color:#dfdfdf" offset=".637"/><stop id="stop18" style="stop-color:#c4c4c4" offset="1"/></linearGradient><linearGradient id="XMLID_2_" x1="-26.333" x2="56.166" y1="-26.333" y2="56.166" gradientUnits="userSpaceOnUse"><stop id="stop23" style="stop-color:#b3b3b3" offset="0"/><stop id="stop25" style="stop-color:#828282" offset="1"/></linearGradient><linearGradient id="XMLID_3_" x1="43.023" x2="204.007" y1="25.421" y2="111.065" gradientUnits="userSpaceOnUse"><stop id="stop30" style="stop-color:#fff" offset="0"/><stop id="stop32" style="stop-color:#dadada" offset=".86"/><stop id="stop34" style="stop-color:#d4d4d4" offset="1"/></linearGradient><linearGradient id="XMLID_8_" x1="85.302" x2="41.845" y1="89.571" y2="46.114" gradientTransform="translate(0,14)" gradientUnits="userSpaceOnUse"><stop id="stop73" style="stop-color:#ffe692" offset="0"/><stop id="stop75" style="stop-color:#ffffdc" offset="1"/></linearGradient><linearGradient id="XMLID_9_" x1="88.085" x2="40.494" y1="92.355" y2="44.764" gradientUnits="userSpaceOnUse"><stop id="stop80" style="stop-color:#744426" offset="0"/><stop id="stop82" style="stop-color:#de972b" offset="1"/></linearGradient><linearGradient id="XMLID_10_" x1="53.9" x2="32.111" y1="108.346" y2="36.189" gradientTransform="translate(0,14)" gradientUnits="userSpaceOnUse"><stop id="stop87" style="stop-color:#ffb82d" offset="0"/><stop id="stop89" style="stop-color:#ffffdc" offset="1"/></linearGradient><linearGradient id="XMLID_11_" x1="49.556" x2="87.605" y1="62.829" y2="85.512" gradientTransform="translate(0,14)" gradientUnits="userSpaceOnUse"><stop id="stop94" style="stop-color:#ffa221" offset="0"/><stop id="stop96" style="stop-color:#ffe192" offset="1"/></linearGradient><linearGradient id="XMLID_12_" x1="62.388" x2="62.388" y1="74.371" y2="36.49" gradientUnits="userSpaceOnUse"><stop id="stop101" style="stop-color:#ffac2d" offset="0"/><stop id="stop103" style="stop-color:#ffffdc" offset="1"/></linearGradient><linearGradient id="XMLID_13_" x1="69.454" x2="69.539" y1="40.948" y2="55.044" gradientTransform="translate(-10.525,44.25156)" gradientUnits="userSpaceOnUse"><stop id="stop108" style="stop-color:#744426" offset="0"/><stop id="stop110" style="stop-color:#de972b" offset="1"/></linearGradient><linearGradient id="XMLID_14_" x1="73.049" x2="61.824" y1="42.362" y2="39.339" gradientTransform="translate(-168.9456,-9.735344)" gradientUnits="userSpaceOnUse"><stop id="stop115" style="stop-color:#744426" offset="0"/><stop id="stop117" style="stop-color:#de972b" offset="1"/></linearGradient><linearGradient id="linearGradient1813" x1="78.131" x2="33.949" y1="22.557" y2="66.947" gradientTransform="matrix(-1,0,0,-1,97.73758,85.81745)" gradientUnits="userSpaceOnUse" xlink:href="#XMLID_12_"/><linearGradient id="linearGradient1817" x1="76.762" x2="77.94" y1="36.931" y2=".974" gradientTransform="matrix(-1,0,0,-1,147.3632,114.5661)" gradientUnits="userSpaceOnUse" xlink:href="#XMLID_12_"/><linearGradient id="linearGradient2702" x1="68.89" x2="68.89" y1="69.634" y2="28.551" gradientUnits="userSpaceOnUse" xlink:href="#XMLID_9_"/><linearGradient id="linearGradient2706" x1="47.644" x2="87.051" y1="66.729" y2="41.281" gradientTransform="matrix(-0.338808,-0.940856,0.940856,-0.338808,62.97188,111.6439)" gradientUnits="userSpaceOnUse" xlink:href="#XMLID_12_"/><linearGradient id="linearGradient2812" x1="56.901" x2="57.257" y1="121.6" y2="10.057" gradientTransform="translate(0,14)" gradientUnits="userSpaceOnUse" xlink:href="#XMLID_9_"/><linearGradient id="linearGradient2814" x1="78.981" x2="36.886" y1="34.858" y2="30.124" gradientTransform="matrix(0,-1,1,0,2.002942,146.3443)" gradientUnits="userSpaceOnUse" xlink:href="#XMLID_12_"/><linearGradient id="linearGradient2825" x1="68.89" x2="86.726" y1="69.634" y2="44.197" gradientTransform="translate(0,14)" gradientUnits="userSpaceOnUse" xlink:href="#XMLID_9_"/><linearGradient id="linearGradient2827" x1="68.89" x2="39.164" y1="69.634" y2="31.68" gradientTransform="translate(0,14)" gradientUnits="userSpaceOnUse" xlink:href="#XMLID_9_"/><linearGradient id="linearGradient2829" x1="88.085" x2="40.494" y1="92.355" y2="44.764" gradientTransform="translate(0,14)" gradientUnits="userSpaceOnUse" xlink:href="#XMLID_9_"/><radialGradient id="radialGradient9037" cx="151.53" cy="30.824" r="35.001" fx="151.53" fy="30.824" gradientTransform="matrix(0.407853,-0.182096,0.912747,2.044345,1.226414e-13,1.29386e-13)" gradientUnits="userSpaceOnUse" xlink:href="#light100to25to0"/><linearGradient id="light100to25to0"><stop id="stop2785" offset="0" style="stop-color:#fff;stop-opacity:1"/><stop id="stop2786" offset=".5" style="stop-color:#fff;stop-opacity:.28749999"/><stop id="stop2787" offset="1" style="stop-color:#fff;stop-opacity:0"/></linearGradient><linearGradient id="linearGradient9038" x1="117.481" x2="122.966" y1=".764" y2="-4.401" gradientTransform="matrix(0.583981,-5.632389e-2,0.240585,1.738144,24.49778,48.99001)" gradientUnits="userSpaceOnUse" xlink:href="#light100to25to0"/><linearGradient id="linearGradient9039" x1="5.683" x2="14.965" y1="21.674" y2="41.796" gradientTransform="matrix(1.104176,2.267121e-18,1.154211e-16,0.490191,43.76188,12.01201)" gradientUnits="userSpaceOnUse" xlink:href="#light75to0"/><linearGradient id="light75to0"><stop id="stop2769" offset="0" style="stop-color:#fff;stop-opacity:.72916669"/><stop id="stop2770" offset="1" style="stop-color:#fff;stop-opacity:0"/></linearGradient><linearGradient id="linearGradient9040" x1="100.606" x2="100.606" y1="37.113" y2="139.74" gradientTransform="matrix(0.380689,-0.189029,0.183421,0.360017,48.0261,-0.411723)" gradientUnits="userSpaceOnUse" xlink:href="#XMLID_1_"/><linearGradient id="linearGradient2900" x1="100.606" x2="100.606" y1="37.113" y2="139.74" gradientUnits="userSpaceOnUse"><stop id="stop9" style="stop-color:#ffa700" offset="0"/><stop id="stop11" style="stop-color:#ff0" offset=".691"/><stop id="stop13" style="stop-color:#fffc00" offset=".792"/><stop id="stop15" style="stop-color:#fff400" offset=".855"/><stop id="stop17" style="stop-color:#ffe500" offset=".907"/><stop id="stop19" style="stop-color:#ffd100" offset=".953"/><stop id="stop21" style="stop-color:#ffb700" offset=".995"/><stop id="stop2909" style="stop-color:#ffb300" offset="1"/><midPointStop id="midPointStop25" style="stop-color:#ffa700" offset="0"/><midPointStop id="midPointStop27" style="stop-color:#ffa700" offset=".5"/><midPointStop id="midPointStop29" style="stop-color:#ff0" offset=".691"/><midPointStop id="midPointStop31" style="stop-color:#ff0" offset=".795"/><midPointStop id="midPointStop33" style="stop-color:#ffb300" offset="1"/></linearGradient><radialGradient id="radialGradient9041" cx="186.754" cy="103.611" r="117.686" fx="189.436" fy="25.391" gradientTransform="matrix(9.250725e-2,-3.513989e-2,3.662747e-2,9.841177e-2,28.36097,10.40549)" gradientUnits="userSpaceOnUse" spreadMethod="reflect" xlink:href="#orangelesstoyelow"/><linearGradient id="orangelesstoyelow"><stop id="stop2689" offset="0" style="stop-color:#ff7d00;stop-opacity:1"/><stop id="stop2690" offset=".254" style="stop-color:#ffbe00;stop-opacity:1"/><stop id="stop2691" offset="1" style="stop-color:#ff0;stop-opacity:1"/></linearGradient><linearGradient id="linearGradient9042" x1="-110.524" x2="439.447" y1="27.162" y2="461.308" gradientTransform="matrix(9.309382e-2,-3.536275e-2,3.639664e-2,9.779137e-2,28.36097,10.40549)" gradientUnits="userSpaceOnUse" xlink:href="#redtodarkred"/><linearGradient id="redtodarkred"><stop id="stop3856" offset="0" style="stop-color:red;stop-opacity:1"/><stop id="stop3855" offset="1" style="stop-color:#920000;stop-opacity:1"/></linearGradient><linearGradient id="linearGradient9043" x1="146.385" x2="307.076" y1="64.408" y2="436.28" gradientTransform="matrix(9.55185e-2,-3.628389e-2,3.912589e-2,0.105125,27.78007,9.907698)" gradientUnits="userSpaceOnUse" xlink:href="#light100to0"/><linearGradient id="light100to0"><stop id="stop2764" offset="0" style="stop-color:#fff;stop-opacity:1"/><stop id="stop2765" offset="1" style="stop-color:#fff;stop-opacity:0"/></linearGradient><linearGradient id="linearGradient9044" x1="100.606" x2="100.606" y1="37.113" y2="139.74" gradientTransform="matrix(0.12861,-6.386046e-2,6.003955e-2,0.117844,48.67348,0.239063)" gradientUnits="userSpaceOnUse" xlink:href="#XMLID_1_"/><radialGradient id="radialGradient2950" cx="151.53" cy="30.824" r="35.001" fx="151.53" fy="30.824" gradientTransform="matrix(0.407853,-0.182096,0.912747,2.044345,1.291708e-13,1.398498e-13)" gradientUnits="userSpaceOnUse" xlink:href="#light100to25to0"/><linearGradient id="linearGradient2952" x1="117.481" x2="122.966" y1=".764" y2="-4.401" gradientTransform="matrix(0.583981,-5.632389e-2,0.240585,1.738144,24.49778,48.99001)" gradientUnits="userSpaceOnUse" xlink:href="#light100to25to0"/><linearGradient id="linearGradient2954" x1="5.683" x2="14.965" y1="21.674" y2="41.796" gradientTransform="matrix(1.104176,4.212489e-18,1.254691e-16,0.490191,43.76188,12.01201)" gradientUnits="userSpaceOnUse" xlink:href="#light75to0"/><linearGradient id="linearGradient2956" x1="100.606" x2="100.606" y1="37.113" y2="139.74" gradientTransform="matrix(0.380689,-0.189029,0.183421,0.360017,48.0261,-0.411723)" gradientUnits="userSpaceOnUse" xlink:href="#XMLID_1_"/><radialGradient id="radialGradient2958" cx="186.754" cy="103.611" r="117.686" fx="189.436" fy="25.391" gradientTransform="matrix(9.250725e-2,-3.513989e-2,3.662747e-2,9.841177e-2,28.36097,10.40549)" gradientUnits="userSpaceOnUse" spreadMethod="reflect" xlink:href="#orangelesstoyelow"/><linearGradient id="linearGradient2960" x1="-110.524" x2="439.447" y1="27.162" y2="461.308" gradientTransform="matrix(9.309382e-2,-3.536275e-2,3.639664e-2,9.779137e-2,28.36097,10.40549)" gradientUnits="userSpaceOnUse" xlink:href="#redtodarkred"/><linearGradient id="linearGradient2962" x1="146.385" x2="307.076" y1="64.408" y2="436.28" gradientTransform="matrix(9.55185e-2,-3.628389e-2,3.912589e-2,0.105125,27.78007,9.907698)" gradientUnits="userSpaceOnUse" xlink:href="#light100to0"/><linearGradient id="linearGradient2964" x1="100.606" x2="100.606" y1="37.113" y2="139.74" gradientTransform="matrix(0.12861,-6.386046e-2,6.003955e-2,0.117844,48.67348,0.239063)" gradientUnits="userSpaceOnUse" xlink:href="#XMLID_1_"/><linearGradient id="linearGradient2968" x1="100.606" x2="100.606" y1="37.113" y2="139.74" gradientTransform="matrix(9.144788e-2,-4.279564e-2,4.2691e-2,7.897233e-2,115.8763,36.81285)" gradientUnits="userSpaceOnUse" xlink:href="#XMLID_1_"/><linearGradient id="linearGradient2971" x1="146.385" x2="307.076" y1="64.408" y2="436.28" gradientTransform="matrix(0.160827,-2.259529e-2,2.781461e-2,0.148115,32.55476,1.714605)" gradientUnits="userSpaceOnUse" xlink:href="#light100to0"/><radialGradient id="radialGradient2974" cx="186.754" cy="103.611" r="117.686" fx="189.436" fy="25.391" gradientTransform="matrix(0.155757,-2.188286e-2,2.60386e-2,0.138657,33.30483,2.519461)" gradientUnits="userSpaceOnUse" spreadMethod="reflect" xlink:href="#orangelesstoyelow"/><linearGradient id="linearGradient2976" x1="-110.524" x2="439.447" y1="27.162" y2="461.308" gradientTransform="matrix(0.156744,-2.202162e-2,2.587458e-2,0.137783,33.30483,2.519461)" gradientUnits="userSpaceOnUse" xlink:href="#redtodarkred"/><linearGradient id="linearGradient2979" x1="100.606" x2="100.606" y1="37.113" y2="139.74" gradientTransform="matrix(0.270688,-0.126676,0.130421,0.241263,115.4159,36.37673)" gradientUnits="userSpaceOnUse" xlink:href="#XMLID_1_"/><linearGradient id="linearGradient2982" x1="5.683" x2="14.965" y1="21.674" y2="41.796" gradientTransform="matrix(0.860124,-0.119425,2.181042e-2,0.327481,124.4575,35.9944)" gradientUnits="userSpaceOnUse" xlink:href="#light75to0"/><linearGradient id="linearGradient2985" x1="117.481" x2="122.966" y1=".764" y2="-4.401" gradientTransform="matrix(0.415239,-3.774506e-2,0.171067,1.164805,98.68618,69.48295)" gradientUnits="userSpaceOnUse" xlink:href="#light100to25to0"/><radialGradient id="radialGradient2988" cx="151.53" cy="30.824" r="35.001" fx="151.53" fy="30.824" gradientTransform="matrix(0.209866,-0.115672,0.645306,1.05286,109.6776,68.18461)" gradientUnits="userSpaceOnUse" xlink:href="#light100to25to0"/><linearGradient id="linearGradient3011" x1="85.302" x2="41.845" y1="89.571" y2="46.114" gradientTransform="translate(0,14)" gradientUnits="userSpaceOnUse" xlink:href="#XMLID_8_"/><linearGradient id="linearGradient3013" x1="88.085" x2="40.494" y1="92.355" y2="44.764" gradientTransform="translate(0,14)" gradientUnits="userSpaceOnUse" xlink:href="#XMLID_9_"/><linearGradient id="linearGradient3015" x1="53.9" x2="32.111" y1="108.346" y2="36.189" gradientTransform="translate(0,14)" gradientUnits="userSpaceOnUse" xlink:href="#XMLID_10_"/><linearGradient id="linearGradient3017" x1="49.556" x2="87.605" y1="62.829" y2="85.512" gradientTransform="translate(0,14)" gradientUnits="userSpaceOnUse" xlink:href="#XMLID_11_"/><linearGradient id="linearGradient3019" x1="69.454" x2="69.539" y1="40.948" y2="55.044" gradientTransform="translate(-10.525,44.25156)" gradientUnits="userSpaceOnUse" xlink:href="#XMLID_13_"/><linearGradient id="linearGradient3021" x1="76.762" x2="77.94" y1="36.931" y2=".974" gradientTransform="matrix(-1,0,0,-1,147.3632,114.5661)" gradientUnits="userSpaceOnUse" xlink:href="#XMLID_12_"/><linearGradient id="linearGradient3023" x1="78.981" x2="36.886" y1="34.858" y2="30.124" gradientTransform="matrix(0,-1,1,0,2.002942,146.3443)" gradientUnits="userSpaceOnUse" xlink:href="#XMLID_12_"/><linearGradient id="linearGradient3025" x1="78.131" x2="33.949" y1="22.557" y2="66.947" gradientTransform="matrix(-1,0,0,-1,97.73758,85.81745)" gradientUnits="userSpaceOnUse" xlink:href="#XMLID_12_"/><linearGradient id="linearGradient3027" x1="47.644" x2="87.051" y1="66.729" y2="41.281" gradientTransform="matrix(-0.338808,-0.940856,0.940856,-0.338808,62.97188,111.6439)" gradientUnits="userSpaceOnUse" xlink:href="#XMLID_12_"/><linearGradient id="linearGradient3029" x1="56.901" x2="57.257" y1="121.6" y2="10.057" gradientTransform="translate(0,14)" gradientUnits="userSpaceOnUse" xlink:href="#XMLID_9_"/><linearGradient id="linearGradient3031" x1="68.89" x2="39.164" y1="69.634" y2="31.68" gradientTransform="translate(0,14)" gradientUnits="userSpaceOnUse" xlink:href="#XMLID_9_"/><linearGradient id="linearGradient3033" x1="68.89" x2="86.726" y1="69.634" y2="44.197" gradientTransform="translate(0,14)" gradientUnits="userSpaceOnUse" xlink:href="#XMLID_9_"/><radialGradient id="radialGradient3035" cx="186.754" cy="103.611" r="117.686" fx="189.436" fy="25.391" gradientTransform="matrix(0.155757,-2.188286e-2,2.60386e-2,0.138657,33.30483,2.519461)" gradientUnits="userSpaceOnUse" spreadMethod="reflect" xlink:href="#orangelesstoyelow"/><linearGradient id="linearGradient3037" x1="-110.524" x2="439.447" y1="27.162" y2="461.308" gradientTransform="matrix(0.156744,-2.202162e-2,2.587458e-2,0.137783,33.30483,2.519461)" gradientUnits="userSpaceOnUse" xlink:href="#redtodarkred"/><linearGradient id="linearGradient3039" x1="146.385" x2="307.076" y1="64.408" y2="436.28" gradientTransform="matrix(0.160827,-2.259529e-2,2.781461e-2,0.148115,32.55476,1.714605)" gradientUnits="userSpaceOnUse" xlink:href="#light100to0"/><radialGradient id="radialGradient3049" cx="186.754" cy="103.611" r="117.686" fx="189.436" fy="25.391" gradientTransform="matrix(0.155757,-2.188286e-2,2.60386e-2,0.138657,33.30483,2.519461)" gradientUnits="userSpaceOnUse" spreadMethod="reflect" xlink:href="#orangelesstoyelow"/><linearGradient id="linearGradient3051" x1="-110.524" x2="439.447" y1="27.162" y2="461.308" gradientTransform="matrix(0.156744,-2.202162e-2,2.587458e-2,0.137783,33.30483,2.519461)" gradientUnits="userSpaceOnUse" xlink:href="#redtodarkred"/><linearGradient id="linearGradient3053" x1="146.385" x2="307.076" y1="64.408" y2="436.28" gradientTransform="matrix(0.160827,-2.259529e-2,2.781461e-2,0.148115,32.55476,1.714605)" gradientUnits="userSpaceOnUse" xlink:href="#light100to0"/><radialGradient id="radialGradient3063" cx="186.754" cy="103.611" r="117.686" fx="189.436" fy="25.391" gradientTransform="matrix(0.155757,-2.188286e-2,2.60386e-2,0.138657,33.30483,2.519461)" gradientUnits="userSpaceOnUse" spreadMethod="reflect" xlink:href="#orangelesstoyelow"/><linearGradient id="linearGradient3065" x1="-110.524" x2="439.447" y1="27.162" y2="461.308" gradientTransform="matrix(0.156744,-2.202162e-2,2.587458e-2,0.137783,33.30483,2.519461)" gradientUnits="userSpaceOnUse" xlink:href="#redtodarkred"/><linearGradient id="linearGradient3067" x1="146.385" x2="307.076" y1="64.408" y2="436.28" gradientTransform="matrix(0.160827,-2.259529e-2,2.781461e-2,0.148115,32.55476,1.714605)" gradientUnits="userSpaceOnUse" xlink:href="#light100to0"/><radialGradient id="radialGradient3151" cx="186.754" cy="103.611" r="117.686" fx="189.436" fy="25.391" gradientTransform="matrix(0.155757,-2.188286e-2,2.60386e-2,0.138657,33.30483,2.519461)" gradientUnits="userSpaceOnUse" spreadMethod="reflect" xlink:href="#orangelesstoyelow"/><linearGradient id="linearGradient3153" x1="146.385" x2="307.076" y1="64.408" y2="436.28" gradientTransform="matrix(0.160827,-2.259529e-2,2.781461e-2,0.148115,32.55476,1.714605)" gradientUnits="userSpaceOnUse" xlink:href="#light100to0"/><radialGradient id="radialGradient3165" cx="186.754" cy="103.611" r="117.686" fx="189.436" fy="25.391" gradientTransform="matrix(0.155757,-2.188286e-2,2.60386e-2,0.138657,33.30483,2.519461)" gradientUnits="userSpaceOnUse" spreadMethod="reflect" xlink:href="#orangelesstoyelow"/><linearGradient id="linearGradient3167" x1="146.385" x2="307.076" y1="64.408" y2="436.28" gradientTransform="matrix(0.160827,-2.259529e-2,2.781461e-2,0.148115,32.55476,1.714605)" gradientUnits="userSpaceOnUse" xlink:href="#light100to0"/><linearGradient id="linearGradient3193" x1="85.302" x2="41.845" y1="89.571" y2="46.114" gradientTransform="translate(4.600488e-15,14)" gradientUnits="userSpaceOnUse" xlink:href="#XMLID_8_"/><linearGradient id="linearGradient3195" x1="88.085" x2="40.494" y1="92.355" y2="44.764" gradientTransform="translate(4.600488e-15,14)" gradientUnits="userSpaceOnUse" xlink:href="#XMLID_9_"/><linearGradient id="linearGradient3197" x1="53.9" x2="32.111" y1="108.346" y2="36.189" gradientTransform="translate(4.600488e-15,14)" gradientUnits="userSpaceOnUse" xlink:href="#XMLID_10_"/><linearGradient id="linearGradient3199" x1="49.556" x2="87.605" y1="62.829" y2="85.512" gradientTransform="translate(4.600488e-15,14)" gradientUnits="userSpaceOnUse" xlink:href="#XMLID_11_"/><linearGradient id="linearGradient3201" x1="69.454" x2="69.539" y1="40.948" y2="55.044" gradientTransform="translate(-10.525,44.25156)" gradientUnits="userSpaceOnUse" xlink:href="#XMLID_13_"/><linearGradient id="linearGradient3203" x1="76.762" x2="77.94" y1="36.931" y2=".974" gradientTransform="matrix(-1,0,0,-1,147.3632,114.5661)" gradientUnits="userSpaceOnUse" xlink:href="#XMLID_12_"/><linearGradient id="linearGradient3205" x1="78.981" x2="36.886" y1="34.858" y2="30.124" gradientTransform="matrix(0,-1,1,0,2.002942,146.3443)" gradientUnits="userSpaceOnUse" xlink:href="#XMLID_12_"/><linearGradient id="linearGradient3207" x1="78.131" x2="33.949" y1="22.557" y2="66.947" gradientTransform="matrix(-1,0,0,-1,97.73758,85.81745)" gradientUnits="userSpaceOnUse" xlink:href="#XMLID_12_"/><linearGradient id="linearGradient3209" x1="47.644" x2="87.051" y1="66.729" y2="41.281" gradientTransform="matrix(-0.338808,-0.940856,0.940856,-0.338808,62.97188,111.6439)" gradientUnits="userSpaceOnUse" xlink:href="#XMLID_12_"/><linearGradient id="linearGradient3211" x1="56.901" x2="57.257" y1="121.6" y2="10.057" gradientTransform="translate(4.600488e-15,14)" gradientUnits="userSpaceOnUse" xlink:href="#XMLID_9_"/><linearGradient id="linearGradient3213" x1="68.89" x2="39.164" y1="69.634" y2="31.68" gradientTransform="translate(4.600488e-15,14)" gradientUnits="userSpaceOnUse" xlink:href="#XMLID_9_"/><linearGradient id="linearGradient3215" x1="68.89" x2="86.726" y1="69.634" y2="44.197" gradientTransform="translate(4.600488e-15,14)" gradientUnits="userSpaceOnUse" xlink:href="#XMLID_9_"/><radialGradient id="radialGradient3217" cx="186.754" cy="103.611" r="117.686" fx="189.436" fy="25.391" gradientTransform="matrix(0.155757,-2.188286e-2,2.60386e-2,0.138657,33.30483,2.519461)" gradientUnits="userSpaceOnUse" spreadMethod="reflect" xlink:href="#orangelesstoyelow"/><linearGradient id="linearGradient3219" x1="146.385" x2="307.076" y1="64.408" y2="436.28" gradientTransform="matrix(0.160827,-2.259529e-2,2.781461e-2,0.148115,32.55476,1.714605)" gradientUnits="userSpaceOnUse" xlink:href="#light100to0"/><linearGradient id="linearGradient3240" x1="100.606" x2="100.606" y1="37.113" y2="139.74" gradientTransform="matrix(0.270688,-0.126676,0.130421,0.241263,115.4159,36.37673)" gradientUnits="userSpaceOnUse" xlink:href="#XMLID_1_"/><linearGradient id="linearGradient3242" x1="100.606" x2="100.606" y1="37.113" y2="139.74" gradientTransform="matrix(9.144788e-2,-4.279564e-2,4.2691e-2,7.897233e-2,115.8763,36.81285)" gradientUnits="userSpaceOnUse" xlink:href="#XMLID_1_"/><radialGradient id="radialGradient3244" cx="186.754" cy="103.611" r="117.686" fx="189.436" fy="25.391" gradientTransform="matrix(0.155757,-2.188286e-2,2.60386e-2,0.138657,33.30483,2.519461)" gradientUnits="userSpaceOnUse" spreadMethod="reflect" xlink:href="#orangelesstoyelow"/><linearGradient id="linearGradient3246" x1="146.385" x2="307.076" y1="64.408" y2="436.28" gradientTransform="matrix(0.160827,-2.259529e-2,2.781461e-2,0.148115,32.55476,1.714605)" gradientUnits="userSpaceOnUse" xlink:href="#light100to0"/><radialGradient id="radialGradient3248" cx="186.754" cy="103.611" r="117.686" fx="189.436" fy="25.391" gradientTransform="matrix(0.155757,-2.188286e-2,2.60386e-2,0.138657,33.30483,2.519461)" gradientUnits="userSpaceOnUse" spreadMethod="reflect" xlink:href="#orangelesstoyelow"/><linearGradient id="linearGradient3250" x1="146.385" x2="307.076" y1="64.408" y2="436.28" gradientTransform="matrix(0.160827,-2.259529e-2,2.781461e-2,0.148115,32.55476,1.714605)" gradientUnits="userSpaceOnUse" xlink:href="#light100to0"/><radialGradient id="radialGradient3252" cx="186.754" cy="103.611" r="117.686" fx="189.436" fy="25.391" gradientTransform="matrix(0.155757,-2.188286e-2,2.60386e-2,0.138657,33.30483,2.519461)" gradientUnits="userSpaceOnUse" spreadMethod="reflect" xlink:href="#orangelesstoyelow"/><linearGradient id="linearGradient3254" x1="146.385" x2="307.076" y1="64.408" y2="436.28" gradientTransform="matrix(0.160827,-2.259529e-2,2.781461e-2,0.148115,32.55476,1.714605)" gradientUnits="userSpaceOnUse" xlink:href="#light100to0"/><linearGradient id="linearGradient3272" x1="100.606" x2="100.606" y1="37.113" y2="139.74" gradientTransform="matrix(9.144788e-2,-4.279564e-2,4.2691e-2,7.897233e-2,115.8763,36.81285)" gradientUnits="userSpaceOnUse" xlink:href="#XMLID_1_"/><linearGradient id="linearGradient3275" x1="100.606" x2="100.606" y1="37.113" y2="139.74" gradientTransform="matrix(0.270688,-0.126676,0.130421,0.241263,115.4159,36.37673)" gradientUnits="userSpaceOnUse" xlink:href="#XMLID_1_"/></defs><path style="fill:none" id="path129" d="M 128,128 L 0,128 L 0,0 L 128,0 L 128,128 z"/><g id="g3294"><g id="g2997" transform="matrix(1.065863,0,0,1.065863,-14.22139,-4.208961)"><path style="fill:url(#linearGradient3193)" id="path77" d="M 28.555,95.263 L 28.555,59.083 L 65.907,38.497 L 95.83,65.662 L 95.83,101.63 L 58.055,122.215 L 28.555,95.263 z"/><path style="fill:url(#linearGradient3195)" id="path84" d="M 65.446,39.661 L 28.094,58.246 C 27.789,58.414 27.601,58.734 27.601,59.082 L 27.601,95.262 C 27.601,95.531 27.712,95.785 27.911,95.967 L 57.411,122.92 C 57.712,123.195 58.154,123.249 58.512,123.054 L 96.287,102.468 C 96.596,102.301 96.787,101.979 96.787,101.629 L 96.787,65.662 C 96.787,65.393 96.674,65.137 96.475,64.955 L 66.549,39.789 C 66.245,39.515 65.803,39.464 65.446,39.661 z M 65.77,39.663 C 66.736,40.54 94.273,65.538 94.876,66.084 C 94.876,66.9 94.876,99.972 94.876,101.063 C 93.921,101.583 59.339,120.428 58.195,121.051 C 57.234,120.172 30.109,95.387 29.511,94.841 C 29.511,94.029 29.511,60.73 29.511,59.646 C 30.457,59.125 64.629,40.292 65.77,39.663 z"/><path style="fill:url(#linearGradient3197)" id="path91" d="M 58.114,87.658 L 58.135,119.149 L 30.503,94.678 L 30.478,60.684 L 56.731,83.934 C 56.731,83.934 57.613,84.58 57.872,85.686 C 58.132,86.79 58.114,87.658 58.114,87.658 z"/><path style="fill:url(#linearGradient3199)" id="path98" d="M 59.464,87.985 L 59.441,119.475 L 94.273,100.742 L 94.298,66.749 L 60.893,84.26 C 60.893,84.26 59.98,84.907 59.712,86.012 C 59.443,87.117 59.464,87.985 59.464,87.985 z"/><path style="opacity:.8;fill:url(#linearGradient3201)" id="path112" d="M 43.599288,101.52335 L 59.570632,84.199439 L 71.24326,105.38888 L 58.663859,94.710564 L 43.599288,101.52335 z"/><path style="fill:url(#linearGradient3203);stroke:none;stroke-width:2;stroke-miterlimit:4;stroke-dasharray:none" id="path1815" d="M 70.836406,105.43152 L 60.311909,84.672081 C 60.311909,84.672081 94.715414,66.462038 95.047909,67.200081 L 104.16363,87.434376 L 70.836406,105.43152 z"/><path id="path1819" d="M 21.487892,75.535505 L 29.501192,59.97756 C 29.501192,59.97756 58.469582,84.873946 57.925063,85.472921 L 43.726633,101.09131 L 21.487892,75.535505 z" style="fill:url(#linearGradient3205);stroke:none;stroke-width:2;stroke-miterlimit:4;stroke-dasharray:none"/><path id="path1811" d="M 30.358585,59.321429 L 18.557899,60.180102 C 18.557899,60.180102 48.750995,45.292293 49.529193,45.069426 L 66.516567,40.204429 L 30.358585,59.321429 z" style="fill:url(#linearGradient3207);stroke:none;stroke-width:2;stroke-miterlimit:4;stroke-dasharray:none"/><path style="fill:url(#linearGradient3209);stroke:none;stroke-width:2;stroke-miterlimit:4;stroke-dasharray:none" id="path2704" d="M 65.32347,40.007146 L 82.495433,49.245496 L 109.6118,67.073888 L 93.255748,66.13094 L 65.32347,40.007146 z"/><path style="fill:url(#linearGradient3211);fill-opacity:1;stroke:none;stroke-width:2;stroke-miterlimit:4;stroke-dasharray:none;stroke-opacity:1" id="path2761" d="M 47.625,44.65625 C 46.711353,45.043411 18.09375,59.28125 18.09375,59.28125 L 17.0625,59.8125 L 17.75,60.75 L 27.185674,60.875406 L 20.59375,75.0625 L 20.28125,75.6875 L 20.71875,76.1875 L 42.96875,101.75 L 43.71875,102.59375 L 44.46875,101.75 L 59.21875,85.65625 L 69.9375,105.875 L 70.40625,106.8125 L 71.3125,106.3125 L 104.625,88.3125 L 105.46875,87.875 L 105.0625,87.03125 L 95.907467,64.529627 C 95.897599,64.507722 95.887078,64.487471 95.876217,64.467127 L 95.876217,66.10399 L 110.81752,68.71441 L 111.125,66.84375 L 110.125,66.21875 L 82.6875,48.047453 L 66.497492,39.363137 C 66.497492,39.363137 48.081824,44.46267 47.625,44.65625 z M 48.25,46.15625 L 62.8125,42.03125 L 30.966924,58.312906 L 22.0625,58.905438 C 22.991029,58.427392 46.543523,46.865583 47.40625,46.5 C 47.77036,46.345707 48.040096,46.231216 48.25,46.15625 z M 83.1875,50.109953 L 108.09375,66.3125 L 94.094967,63.435877 L 67.059992,41.331887 L 83.1875,50.109953 z M 29.998986,59.093141 C 29.379827,59.255316 58.073123,83.075125 57.406656,83.84375 L 43.75,99.59375 L 22.6875,75.375 L 29.998986,59.093141 z M 94.407467,65.780438 L 102.875,87 L 71.28125,104.09375 L 60.65625,83.09375 L 94.407467,65.780438 z"/><path style="fill:url(#linearGradient3213);fill-opacity:1" id="path105" d="M 65.188641,42.434717 L 93.554,66.14 L 60.884,83.263 C 60.884,83.263 59.624,83.687 58.818,83.612 C 58.011,83.538 57.027,82.723 57.027,82.723 L 31.221,59.769453 L 65.188641,42.434717 z"/><path style="fill:url(#linearGradient3215);fill-opacity:1" id="path2819" d="M 65.40625,42.563718 L 65.40625,80.875 L 93.5625,66.125 L 65.40625,42.563718 z"/></g><g id="g3277"><g id="g2992" transform="translate(12,3)"><path style="fill:#dd8300;fill-opacity:1;stroke:none;stroke-width:.39872491;stroke-linejoin:round;stroke-miterlimit:4;stroke-opacity:.41874994" id="path3137" d="M 96.793048,14.647006 C 96.561022,14.229453 95.92588,13.548739 94.282177,13.685424 L 76.864565,15.168436 C 75.867929,15.253133 74.501526,14.597316 73.996179,13.789593 L 65.212945,-0.2552166 C 64.3813,-1.577446 63.420593,-1.6628567 62.919518,-1.5971452 C 62.419837,-1.5321035 61.532489,-1.1997076 61.200689,0.27565829 L 57.674814,15.933073 C 57.467987,16.845544 56.408539,17.805129 55.4095,17.983007 L 38.274634,21.047768 C 36.661328,21.327407 36.288057,22.136197 36.209136,22.593687 C 36.130193,23.051174 36.214421,23.934481 37.656447,24.710483 L 52.889285,32.902675 C 53.773253,33.383839 54.463462,34.624188 54.35885,35.553715 L 52.546872,51.478156 C 52.378563,52.978854 53.110893,53.565723 53.561479,53.782824 C 54.014566,53.999583 54.955175,54.214415 56.178871,53.216284 L 69.120815,42.629951 C 69.877895,42.008733 71.363717,41.811239 72.302046,42.206921 L 88.314971,48.998153 C 89.826248,49.640166 90.651012,49.191843 91.00863,48.867754 C 91.36627,48.54367 91.862,47.791767 91.174515,46.402863 L 83.938439,31.661 C 83.524586,30.816035 83.757099,29.437135 84.426444,28.767282 L 96.143937,17.033486 C 97.246947,15.928053 97.025075,15.064553 96.793048,14.647006 z"/><path id="path1107" d="M 94.594276,15.486204 C 94.379139,15.099045 93.790228,14.467879 92.266169,14.594615 L 76.116372,15.96968 C 75.192281,16.048212 73.925337,15.440131 73.456774,14.691202 L 65.312865,1.6687035 C 64.541755,0.44271817 63.650977,0.36352447 63.186375,0.42445287 C 62.723065,0.48476027 61.900307,0.79296127 61.592658,2.1609364 L 58.323429,16.678659 C 58.131657,17.524712 57.149325,18.41445 56.223006,18.57938 L 40.335374,21.42106 C 38.839499,21.680344 38.493398,22.430263 38.420222,22.854452 C 38.347025,23.278639 38.425122,24.097651 39.762184,24.817168 L 53.886235,32.413057 C 54.70586,32.859197 55.345829,34.009262 55.248832,34.871129 L 53.568746,49.636442 C 53.412688,51.027905 54.091713,51.572057 54.509501,51.773355 C 54.929608,51.974336 55.801751,52.173531 56.936375,51.248053 L 68.936284,41.432291 C 69.638257,40.856291 71.015927,40.673173 71.885956,41.040053 L 86.733312,47.336957 C 88.134584,47.932238 88.899314,47.516548 89.230901,47.216049 C 89.562509,46.915555 90.022155,46.218383 89.384712,44.930576 L 82.675344,31.261762 C 82.291615,30.478302 82.507204,29.199771 83.127828,28.578676 L 93.992413,17.698974 C 95.015136,16.674005 94.809414,15.873358 94.594276,15.486204 z" style="fill:url(#radialGradient3244);stroke:none;stroke-width:.39872491;stroke-linejoin:round;stroke-miterlimit:4;stroke-opacity:.41874994"/><path id="path1108" d="M 82.160997,26.672668 L 88.904694,19.361734 C 89.715697,18.482363 89.539967,17.785866 89.362095,17.447997 C 89.185125,17.110011 88.703627,16.557552 87.477689,16.653969 L 74.494911,17.701288 C 73.751637,17.76149 72.725541,17.222367 72.339408,16.568507 L 65.627165,5.2007064 C 64.99257,4.1304409 64.274026,4.0540292 63.901263,4.1023394 C 63.528942,4.1505871 62.870399,4.4105504 62.639493,5.5938344 L 60.182245,18.156034 C 60.03822,18.887994 59.25847,19.651037 58.514583,19.785343 L 45.760671,22.107049 C 44.559917,22.318167 44.290083,22.965349 44.236548,23.333021 C 44.18292,23.70025 44.255158,24.411296 45.340311,25.04728 L 56.799705,31.762605 C 57.464838,32.156575 57.993869,33.160427 57.92611,33.906937 L 57.888975,34.316074 C 59.290225,34.224817 60.704075,34.087102 62.129336,33.886856 C 69.912131,32.79341 76.807494,30.18999 82.160997,26.672668 z" style="fill:url(#linearGradient3246)"/><path id="path1110" d="M 71.380457,38.330986 C 70.492019,37.910927 69.099824,38.095642 68.399368,38.72501 L 56.744706,51.153463 C 55.612511,52.165102 54.724763,51.93208 54.295773,51.702508 C 53.990516,51.538666 53.55033,51.170528 53.370729,50.412815 C 53.491335,51.235825 53.977641,51.610113 54.308037,51.767811 C 54.732083,51.968486 55.612825,52.166798 56.760694,51.238685 L 68.900789,41.395078 C 69.610962,40.817441 71.003079,40.632301 71.881407,40.998512 L 86.870111,47.283938 C 87.576638,47.580709 88.123916,47.625247 88.536249,47.557302 C 88.124073,47.626095 87.574325,47.568413 86.85967,47.228385 L 71.380457,38.330986 z" style="opacity:.3;fill:#e89500"/></g><g id="g3155" transform="matrix(0.343091,5.348862e-2,-5.348862e-2,0.343091,34.83234,55.72237)"><path style="fill:#dd8300;fill-opacity:1;stroke:none;stroke-width:.39872491;stroke-linejoin:round;stroke-miterlimit:4;stroke-opacity:.41874994" id="path3157" d="M 96.793048,14.647006 C 96.561022,14.229453 95.92588,13.548739 94.282177,13.685424 L 76.864565,15.168436 C 75.867929,15.253133 74.501526,14.597316 73.996179,13.789593 L 65.212945,-0.2552166 C 64.3813,-1.577446 63.420593,-1.6628567 62.919518,-1.5971452 C 62.419837,-1.5321035 61.532489,-1.1997076 61.200689,0.27565829 L 57.674814,15.933073 C 57.467987,16.845544 56.408539,17.805129 55.4095,17.983007 L 38.274634,21.047768 C 36.661328,21.327407 36.288057,22.136197 36.209136,22.593687 C 36.130193,23.051174 36.214421,23.934481 37.656447,24.710483 L 52.889285,32.902675 C 53.773253,33.383839 54.463462,34.624188 54.35885,35.553715 L 52.546872,51.478156 C 52.378563,52.978854 53.110893,53.565723 53.561479,53.782824 C 54.014566,53.999583 54.955175,54.214415 56.178871,53.216284 L 69.120815,42.629951 C 69.877895,42.008733 71.363717,41.811239 72.302046,42.206921 L 88.314971,48.998153 C 89.826248,49.640166 90.651012,49.191843 91.00863,48.867754 C 91.36627,48.54367 91.862,47.791767 91.174515,46.402863 L 83.938439,31.661 C 83.524586,30.816035 83.757099,29.437135 84.426444,28.767282 L 96.143937,17.033486 C 97.246947,15.928053 97.025075,15.064553 96.793048,14.647006 z"/><path id="path3159" d="M 94.594276,15.486204 C 94.379139,15.099045 93.790228,14.467879 92.266169,14.594615 L 76.116372,15.96968 C 75.192281,16.048212 73.925337,15.440131 73.456774,14.691202 L 65.312865,1.6687035 C 64.541755,0.44271817 63.650977,0.36352447 63.186375,0.42445287 C 62.723065,0.48476027 61.900307,0.79296127 61.592658,2.1609364 L 58.323429,16.678659 C 58.131657,17.524712 57.149325,18.41445 56.223006,18.57938 L 40.335374,21.42106 C 38.839499,21.680344 38.493398,22.430263 38.420222,22.854452 C 38.347025,23.278639 38.425122,24.097651 39.762184,24.817168 L 53.886235,32.413057 C 54.70586,32.859197 55.345829,34.009262 55.248832,34.871129 L 53.568746,49.636442 C 53.412688,51.027905 54.091713,51.572057 54.509501,51.773355 C 54.929608,51.974336 55.801751,52.173531 56.936375,51.248053 L 68.936284,41.432291 C 69.638257,40.856291 71.015927,40.673173 71.885956,41.040053 L 86.733312,47.336957 C 88.134584,47.932238 88.899314,47.516548 89.230901,47.216049 C 89.562509,46.915555 90.022155,46.218383 89.384712,44.930576 L 82.675344,31.261762 C 82.291615,30.478302 82.507204,29.199771 83.127828,28.578676 L 93.992413,17.698974 C 95.015136,16.674005 94.809414,15.873358 94.594276,15.486204 z" style="fill:url(#radialGradient3248);stroke:none;stroke-width:.39872491;stroke-linejoin:round;stroke-miterlimit:4;stroke-opacity:.41874994"/><path id="path3161" d="M 82.160997,26.672668 L 88.904694,19.361734 C 89.715697,18.482363 89.539967,17.785866 89.362095,17.447997 C 89.185125,17.110011 88.703627,16.557552 87.477689,16.653969 L 74.494911,17.701288 C 73.751637,17.76149 72.725541,17.222367 72.339408,16.568507 L 65.627165,5.2007064 C 64.99257,4.1304409 64.274026,4.0540292 63.901263,4.1023394 C 63.528942,4.1505871 62.870399,4.4105504 62.639493,5.5938344 L 60.182245,18.156034 C 60.03822,18.887994 59.25847,19.651037 58.514583,19.785343 L 45.760671,22.107049 C 44.559917,22.318167 44.290083,22.965349 44.236548,23.333021 C 44.18292,23.70025 44.255158,24.411296 45.340311,25.04728 L 56.799705,31.762605 C 57.464838,32.156575 57.993869,33.160427 57.92611,33.906937 L 57.888975,34.316074 C 59.290225,34.224817 60.704075,34.087102 62.129336,33.886856 C 69.912131,32.79341 76.807494,30.18999 82.160997,26.672668 z" style="fill:url(#linearGradient3250)"/><path id="path3163" d="M 71.380457,38.330986 C 70.492019,37.910927 69.099824,38.095642 68.399368,38.72501 L 56.744706,51.153463 C 55.612511,52.165102 54.724763,51.93208 54.295773,51.702508 C 53.990516,51.538666 53.55033,51.170528 53.370729,50.412815 C 53.491335,51.235825 53.977641,51.610113 54.308037,51.767811 C 54.732083,51.968486 55.612825,52.166798 56.760694,51.238685 L 68.900789,41.395078 C 69.610962,40.817441 71.003079,40.632301 71.881407,40.998512 L 86.870111,47.283938 C 87.576638,47.580709 88.123916,47.625247 88.536249,47.557302 C 88.124073,47.626095 87.574325,47.568413 86.85967,47.228385 L 71.380457,38.330986 z" style="opacity:.3;fill:#e89500"/></g><g id="g3141" transform="matrix(0.599745,0.19998,-0.19998,0.599745,4.582357,22.69052)"><path id="path3143" d="M 96.793048,14.647006 C 96.561022,14.229453 95.92588,13.548739 94.282177,13.685424 L 76.864565,15.168436 C 75.867929,15.253133 74.501526,14.597316 73.996179,13.789593 L 65.212945,-0.2552166 C 64.3813,-1.577446 63.420593,-1.6628567 62.919518,-1.5971452 C 62.419837,-1.5321035 61.532489,-1.1997076 61.200689,0.27565829 L 57.674814,15.933073 C 57.467987,16.845544 56.408539,17.805129 55.4095,17.983007 L 38.274634,21.047768 C 36.661328,21.327407 36.288057,22.136197 36.209136,22.593687 C 36.130193,23.051174 36.214421,23.934481 37.656447,24.710483 L 52.889285,32.902675 C 53.773253,33.383839 54.463462,34.624188 54.35885,35.553715 L 52.546872,51.478156 C 52.378563,52.978854 53.110893,53.565723 53.561479,53.782824 C 54.014566,53.999583 54.955175,54.214415 56.178871,53.216284 L 69.120815,42.629951 C 69.877895,42.008733 71.363717,41.811239 72.302046,42.206921 L 88.314971,48.998153 C 89.826248,49.640166 90.651012,49.191843 91.00863,48.867754 C 91.36627,48.54367 91.862,47.791767 91.174515,46.402863 L 83.938439,31.661 C 83.524586,30.816035 83.757099,29.437135 84.426444,28.767282 L 96.143937,17.033486 C 97.246947,15.928053 97.025075,15.064553 96.793048,14.647006 z" style="fill:#dd8300;fill-opacity:1;stroke:none;stroke-width:.39872491;stroke-linejoin:round;stroke-miterlimit:4;stroke-opacity:.41874994"/><path style="fill:url(#radialGradient3252);stroke:none;stroke-width:.39872491;stroke-linejoin:round;stroke-miterlimit:4;stroke-opacity:.41874994" id="path3145" d="M 94.594276,15.486204 C 94.379139,15.099045 93.790228,14.467879 92.266169,14.594615 L 76.116372,15.96968 C 75.192281,16.048212 73.925337,15.440131 73.456774,14.691202 L 65.312865,1.6687035 C 64.541755,0.44271817 63.650977,0.36352447 63.186375,0.42445287 C 62.723065,0.48476027 61.900307,0.79296127 61.592658,2.1609364 L 58.323429,16.678659 C 58.131657,17.524712 57.149325,18.41445 56.223006,18.57938 L 40.335374,21.42106 C 38.839499,21.680344 38.493398,22.430263 38.420222,22.854452 C 38.347025,23.278639 38.425122,24.097651 39.762184,24.817168 L 53.886235,32.413057 C 54.70586,32.859197 55.345829,34.009262 55.248832,34.871129 L 53.568746,49.636442 C 53.412688,51.027905 54.091713,51.572057 54.509501,51.773355 C 54.929608,51.974336 55.801751,52.173531 56.936375,51.248053 L 68.936284,41.432291 C 69.638257,40.856291 71.015927,40.673173 71.885956,41.040053 L 86.733312,47.336957 C 88.134584,47.932238 88.899314,47.516548 89.230901,47.216049 C 89.562509,46.915555 90.022155,46.218383 89.384712,44.930576 L 82.675344,31.261762 C 82.291615,30.478302 82.507204,29.199771 83.127828,28.578676 L 93.992413,17.698974 C 95.015136,16.674005 94.809414,15.873358 94.594276,15.486204 z"/><path style="fill:url(#linearGradient3254)" id="path3147" d="M 82.160997,26.672668 L 88.904694,19.361734 C 89.715697,18.482363 89.539967,17.785866 89.362095,17.447997 C 89.185125,17.110011 88.703627,16.557552 87.477689,16.653969 L 74.494911,17.701288 C 73.751637,17.76149 72.725541,17.222367 72.339408,16.568507 L 65.627165,5.2007064 C 64.99257,4.1304409 64.274026,4.0540292 63.901263,4.1023394 C 63.528942,4.1505871 62.870399,4.4105504 62.639493,5.5938344 L 60.182245,18.156034 C 60.03822,18.887994 59.25847,19.651037 58.514583,19.785343 L 45.760671,22.107049 C 44.559917,22.318167 44.290083,22.965349 44.236548,23.333021 C 44.18292,23.70025 44.255158,24.411296 45.340311,25.04728 L 56.799705,31.762605 C 57.464838,32.156575 57.993869,33.160427 57.92611,33.906937 L 57.888975,34.316074 C 59.290225,34.224817 60.704075,34.087102 62.129336,33.886856 C 69.912131,32.79341 76.807494,30.18999 82.160997,26.672668 z"/><path style="opacity:.3;fill:#e89500" id="path3149" d="M 71.380457,38.330986 C 70.492019,37.910927 69.099824,38.095642 68.399368,38.72501 L 56.744706,51.153463 C 55.612511,52.165102 54.724763,51.93208 54.295773,51.702508 C 53.990516,51.538666 53.55033,51.170528 53.370729,50.412815 C 53.491335,51.235825 53.977641,51.610113 54.308037,51.767811 C 54.732083,51.968486 55.612825,52.166798 56.760694,51.238685 L 68.900789,41.395078 C 69.610962,40.817441 71.003079,40.632301 71.881407,40.998512 L 86.870111,47.283938 C 87.576638,47.580709 88.123916,47.625247 88.536249,47.557302 C 88.124073,47.626095 87.574325,47.568413 86.85967,47.228385 L 71.380457,38.330986 z"/></g></g></g></svg>